<svg id="Layer_1" enable-background="new 0 0 500 500" viewBox="0 0 500 500" xmlns="http://www.w3.org/2000/svg"><path clip-rule="evenodd" d="m435.504 429.713c-8.746 5.598-18.822 8.255-28.999 7.689 3.726-9.499 10.318-17.527 19.059-23.181 8.735-5.597 18.816-8.255 29.01-7.689-3.731 9.499-10.318 17.584-19.07 23.181zm-67.671-14.7c6.038 9.385 14.909 16.283 25.324 19.845 9.394-27.008 36.146-44.232 64.607-41.556 2.296-22.725-11.498-43.748-32.866-51.054-9.48 27.071-35.938 44.004-64.567 41.499-1.058 10.573 1.305 21.598 7.502 31.266zm14.723-67.677c8.86-5.698 19.058-8.343 28.993-7.689-3.732 9.499-10.324 17.527-19.048 23.124-8.724 5.654-18.799 8.255-28.976 7.746 3.63-9.216 10.075-17.414 19.031-23.181zm78.967 7.463c-18.607-28.948-57.285-37.372-86.227-18.771s-37.349 57.274-18.748 86.221c18.718 29.135 57.449 37.318 86.216 18.771 28.944-18.661 37.378-57.235 18.759-86.221zm-248.029-233.108v36.015h-24.266c6.043-12.665 14.157-24.877 24.266-36.015zm93.283-48.058 10.646-.396v32.51h-38.548v-26.573c9.131-2.884 18.483-4.75 27.902-5.541zm84.955 32.114h-8.922v-8.933c3.519 3.152 5.816 5.367 8.922 8.933zm23.181 76.044c-.786 9.385-2.657 18.771-5.512 27.874h-26.59v-38.503h32.521c.01 3.505-.114 7.011-.419 10.629zm-219.314 93.289h17.894v17.866c-6.696-4.978-12.851-11.196-17.894-17.866zm69.854-169.333h-35.269c10.917-8.99 22.808-16.226 35.269-21.598zm51.97 51.959h-38.548v-38.559h38.548zm0 117.374v29.796c-12.761 4.579-25.782 7.067-38.548 7.576v-37.372zm-38.548-65.415v-38.503h38.548v38.503zm38.548 13.456v38.559h-38.548v-38.559zm-90.513 51.959h38.542v37.089c-13.631-1.131-26.715-4.693-38.542-10.799zm38.543-51.959v38.559h-38.543v-38.559zm0-51.959v38.503h-38.543v-38.503zm-38.543-52.016h38.542v38.559h-38.542zm139.979 155.934c-11.166 10.12-23.362 18.205-36.043 24.255v-24.255zm2.505-169.333h-38.548v-31.662c13.999 1.753 27.037 6.163 38.548 13.004zm13.416 117.374h21.615c-5.377 12.438-12.648 24.312-21.615 35.223zm-13.416 0v38.559h-38.548v-38.559zm-38.549-65.415v-38.559h38.548v38.559zm38.549 13.456v38.503h-38.548v-38.503zm45.078-13.456h-31.662v-38.559h18.658c6.858 11.533 11.262 24.537 13.004 38.559zm-238.35 51.959c.469-12.721 2.997-25.782 7.536-38.503h29.835v38.503zm37.372 13.456v38.559h-26.33c-6.095-11.873-9.662-24.934-10.754-38.559zm-19.065 71.012c-47.605-47.605-40.917-131.735 14.915-187.595 26.89-26.856 61.101-43.309 96.314-46.249 35.642-2.997 68.044 8.142 91.265 31.379 23.203 23.181 34.342 55.578 31.362 91.254-6.483 77.438-77.435 142.986-153.723 142.986-30.159 0-58.807-10.459-80.133-31.775zm-40.832 61.91 83.977-15.152c-44.523-11.906-77.976-45.349-89.902-89.897l-15.169 83.96c-.916 5.032-2.872 9.385-5.914 13.287l13.739 13.739c3.867-3.053 8.231-5.032 13.269-5.937zm-26.641 27.648-22.09-22.106 8.051-8.029 22.095 22.107zm-60.185 60.213 50.698-50.715-22.095-22.106-50.698 50.715c-3.573 3.562-3.573 9.385 0 12.948l9.125 9.159c3.554 3.532 9.357 3.553 12.97-.001zm138.027-341.889c30.813-30.813 70.925-48.567 112.116-48.567 32.922 0 62.651 11.76 84.554 33.64 50.104 50.093 43.416 138.35-14.915 196.698-32.075 32.057-73.167 48.51-112.003 48.51-31.803 0-62.102-11.082-84.667-33.64-50.11-50.093-43.416-138.293 14.915-196.641zm191.248 191.214c63.561-63.549 70.244-160.287 14.909-215.638-26.946-26.912-64.313-40.142-105.224-37.146-82.589 5.961-153.095 75.802-161.915 156.838h-.068l-24.459 135.297c-.486 2.714-1.425 4.919-2.94 7.011-3.72-1.3-8.006-.452-10.963 2.488l-70.198 70.221c-8.809 8.82-8.809 23.124 0 31.944l9.12 9.103c8.806 8.839 23.152 8.831 31.956 0l70.193-70.164c2.963-2.997 3.805-7.237 2.544-10.969 2.035-1.526 4.274-2.431 6.983-2.94l135.325-24.481-.017-.057c37.071-4.015 74.636-21.372 104.754-51.507z" fill-rule="evenodd"/></svg>