<svg height="512" viewBox="0 0 96 96" width="512" xmlns="http://www.w3.org/2000/svg"><g id="Layer_4"><g><path d="m61.671 77.375c0-5.002-3.554-9.353-8.45-10.35-.823-.152-1.624.366-1.791 1.187-.167.823.363 1.624 1.186 1.792 3.487.708 6.018 3.809 6.018 7.371 0 4.15-3.375 7.524-7.523 7.524s-7.522-3.374-7.522-7.524c0-2.462 1.183-4.71 3.144-6.111l2.99 6.728c.252.566.807.902 1.389.902.206 0 .415-.042.616-.131.766-.34 1.112-1.238.771-2.006l-7.102-15.979v-3.295c0-1.155.941-2.097 2.098-2.097h3.616c1.157 0 2.098.941 2.098 2.097 0 .56-.219 1.086-.616 1.483-.391.392-.931.615-1.482.615h-1.808c-.839 0-1.519.68-1.519 1.519s.68 1.519 1.519 1.519h1.808c1.352 0 2.676-.548 3.631-1.505.971-.971 1.505-2.261 1.505-3.631 0-2.83-2.304-5.134-5.136-5.134h-3.616c-2.832 0-5.135 2.304-5.135 5.134v2.098h-15.047v-2.387h3.906c.839 0 1.519-.68 1.519-1.519s-.68-1.519-1.519-1.519h-9.042c-.839 0-1.519.68-1.519 1.519s.68 1.519 1.519 1.519h2.098v3.584l-2.877 6.473c-.909-.256-1.848-.436-2.837-.436-5.824 0-10.561 4.737-10.561 10.56s4.737 10.562 10.561 10.562c5.303 0 9.663-3.944 10.407-9.043h5.868c.538 0 1.036-.285 1.309-.75.032-.054 7.578-13.651 7.578-13.651l1.764 3.968c-3.059 1.927-4.936 5.246-4.936 8.914 0 5.823 4.737 10.562 10.56 10.562 5.822-.001 10.56-4.74 10.56-10.562zm-43.11 7.523c-4.148 0-7.523-3.374-7.523-7.524 0-4.148 3.375-7.522 7.523-7.522.55 0 1.084.067 1.601.18l-2.989 6.725c-.209.471-.166 1.013.114 1.444s.759.692 1.274.692h7.368c-.705 3.423-3.741 6.005-7.368 6.005zm2.337-9.042 2.034-4.578c1.506 1.084 2.609 2.697 2.996 4.578zm8.069 0c-.454-3.109-2.238-5.773-4.786-7.387l1.764-3.968 6.309 11.355zm5.847-1.648-6.439-11.588h12.913z"/><path d="m26.927 44.542h51.529c3.587 0 6.506 2.919 6.506 6.507s-2.919 6.505-6.506 6.505h-14.177c-.839 0-1.519.68-1.519 1.519s.68 1.519 1.519 1.519h14.177c5.263 0 9.544-4.28 9.544-9.543s-4.282-9.545-9.544-9.545h-51.529c-3.587 0-6.506-2.919-6.506-6.507s2.919-6.505 6.506-6.505h19.048c.839 0 1.519-.68 1.519-1.519s-.68-1.519-1.519-1.519h-19.048c-5.263 0-9.544 4.28-9.544 9.543s4.281 9.545 9.544 9.545z"/><path d="m59.808 31.245c.839 0 1.519-.68 1.519-1.519v-7.168l15.143-3.942c.773-.196 1.334-.862 1.397-1.657.063-.797-.387-1.545-1.117-1.861l-15.845-6.875c-.579-.255-1.24-.202-1.77.144s-.846.93-.846 1.563v19.796c0 .839.68 1.519 1.519 1.519zm1.519-19.527 11.094 4.814-11.094 2.888z"/><path d="m59.693 35.278c3.653 0 7.584-1.29 7.584-4.122 0-1.527-1.266-2.813-3.474-3.525-.799-.253-1.655.182-1.912.979-.258.799.18 1.655.979 1.913.709.227 1.099.481 1.278.637-.448.402-1.982 1.08-4.455 1.08-2.471 0-4.006-.676-4.455-1.08.16-.138.487-.356 1.061-.564.789-.285 1.197-1.155.912-1.944s-1.157-1.197-1.945-.912c-2.747.993-3.157 2.567-3.157 3.416 0 2.833 3.931 4.122 7.584 4.122z"/></g></g></svg>