<svg clip-rule="evenodd" fill-rule="evenodd" height="6.827in" image-rendering="optimizeQuality" shape-rendering="geometricPrecision" text-rendering="geometricPrecision" viewBox="0 0 6.82666 6.82666" width="6.827in" xmlns="http://www.w3.org/2000/svg"><g id="Layer_x0020_1"><g id="_246860584"><path id="_246861760" d="m1.18405 5.82995h4.45861v-.996921c0-.0771732-.0627795-.139953-.139961-.139953h-4.17869c-.0771811 0-.139961.0627953-.139961.139961l.00000787.996913zm4.52527.133264h-4.59194c-.0368189 0-.0666693-.0297047-.0666693-.0665945l.00000394-1.06359c0-.150689.122594-.273283.273287-.273283l4.1787-.00001575c.150697 0 .273291.12261.273291.273307v1.06357c0 .0368898-.0298465.066622-.0666654.0666063z"/><path id="_246861688" d="m5.70932 6.46684h-.491126c-.0368189 0-.0666811-.0298622-.0666811-.0666654l.00000394-.503567c0-.0367992.0298583-.0666417.0666772-.0666417.0368228 0 .0666654.0298465.0666654.0666535v.436878h.357795v-.43689c0-.0367992.0298425-.0666417.0666654-.0666417.0368189 0 .0666654.0298465.0666654.0666535v.503551c0 .0367953-.0298465.0666693-.0666654.0666693z"/><path id="_246861616" d="m1.60852 6.46684h-.491142c-.0368189 0-.0666693-.0298622-.0666693-.0666654l.00000394-.503567c0-.0367992.0298465-.0666417.0666654-.0666417s.0666654.0298465.0666654.0666535l.00000787.436878h.357803v-.43689c0-.0367992.0298425-.0666417.0666614-.0666417.0368228 0 .0666654.0298465.0666654.0666535v.503551c0 .0367953-.0298465.0666693-.0666614.0666693z"/><path id="_246861544" d="m5.36609 4.13984c-.0368228 0-.0666732-.0298307-.0666732-.0666496l.00000787-1.38526c0-.0160157-.0125354-.0290787-.0285197-.0297717-.321957-.0138543-.781083-.0727244-1.13991-.274555-.617051-.347094-.818264-.347071-1.4353 0-.358803.201827-.817933.260705-1.13991.274555-.0159843.00069291-.0285118.0137638-.0285118.0297756l.00000394 1.38525c0 .036811-.0298504.0666693-.0666693.0666693-.036815-.00001575-.0666693-.0298465-.0666693-.0666654l.00000394-1.38526c0-.087626.0685787-.159205.156122-.162984.307449-.0132362.744417-.0686378 1.08026-.257551.658614-.37048.907429-.370461 1.56604 0 .33585.188909.772819.244331 1.08025.257551.0875551.00376378.156126.0753622.156126.162988v1.38525c0 .036811-.0298465.0666693-.0666614.0666535z"/><path id="_246861472" d="m5.00735 4.13984c-.0368189 0-.0666732-.0298307-.0666732-.0666496v-1.08182c-.388201-.0462638-.719512-.145433-.985555-.295087-.501272-.281976-.582276-.281972-1.08356 0-.266051.14965-.597346.248835-.985543.295098l.00000787 1.0818c0 .036811-.0298543.0666693-.0666732.0666693-.036811-.00001575-.0666654-.0298465-.0666654-.0666654v-1.14148c0-.0341378.0258189-.0627638.0597913-.0662874.39578-.0410709.73011-.137071.99372-.28535.54474-.306421.669583-.306402 1.21428 0 .263618.148264.597945.24428.993736.28535.0339724.00352362.0597756.0321496.0597756.0663031l.00000394 1.14146c0 .036811-.0298504.0666693-.0666496.0666535z"/><path id="_246861400" d="m5.36611 4.69307c-.0368228 0-.066689-.0298465-.066689-.0666654.00000787-.0368189.0298622-.0666654.0666811-.0666654.0341535-.00001575.0619449-.0277953.0619449-.0619606l.00000787-.295976c0-.0341693-.0277992-.0619528-.0619528-.0619528l-3.90549-.00001575c-.0341575 0-.0619528.0278071-.0619528.0619724l.00000394.295965c0 .0341732.0277874.0619685.0619409.0619685.0368268-.00001575.0666811.0298465.0666811.0666654.00000394.0368189-.0298622.0666654-.0666811.0666654-.107673 0-.195276-.0876102-.195276-.195291v-.295976c0-.107685.0875945-.195287.195276-.195287l3.90551-.00000787c.107677 0 .195283.087622.195283.195299l.00000394.295965c0 .107689-.0876142.195299-.195287.195299z"/><path id="_246861328" d="m4.62125 4.13984c-.0368189 0-.0666654-.0298307-.0666654-.0666496l.00000394-.291567c0-.0418465-.0340472-.0758937-.0758937-.0758937h-.703709c-.0418622 0-.0759016.0340551-.0759016.0759055l.00000394.291551c0 .036811-.0298543.0666693-.0666732.0666693-.036811-.00001575-.0666654-.0298465-.0666654-.0666654v-.291567c0-.115378.0938622-.209213.209236-.209213l.703709-.00000787c.115362 0 .20922.0938543.20922.209232l.00000787.291551c0 .036811-.0298543.0666693-.0666732.0666535z"/><path id="_246861256" d="m3.19428 4.13984c-.0368189 0-.0666693-.0298307-.0666693-.0666496l.00000394-.291929c0-.0416535-.0338937-.0755315-.0755472-.0755315h-.704413c-.0416535 0-.0755433.0338898-.0755433.0755433l.00000394.291913c0 .036811-.0298543.0666693-.0666732.0666693-.0368189-.00001575-.0666654-.0298465-.0666654-.0666654l.00000394-.291929c0-.115169.093689-.20885.20887-.20885l.704421-.00000787c.115177 0 .20887.0937008.20887.20887l.00000394.291913c0 .036811-.0298504.0666693-.0666654.0666535z"/><path id="_246861184" d="m5.70932 5.55865h-4.59194c-.0368189 0-.0666693-.0298425-.0666693-.0666614.00000394-.0368228.0298504-.0666654.0666693-.0666654l4.59194-.00000394c.0368189 0 .0666654.0298504.0666654.0666693 0 .036815-.0298465.0666693-.0666654.0666614z"/><path id="_246861112" d="m.980142.493154c-.045622 0-.0827244.0371181-.0827244.0827441l.00000787 1.02439c0 .0456102.0370906.0827283.0827126.0827283l1.85674-.00000787c.0456102 0 .0827205-.0371024.0827205-.0827126l.00000787-1.02441c0-.045626-.0371181-.0827244-.0827323-.0827244l-1.85673-.00000787zm1.85674 1.32319h-1.85674c-.119138 0-.216071-.0969016-.216071-.216039l.00000394-1.02441c0-.119142.0969252-.216059.216063-.216059l1.85674-.00000394c.119126 0 .216055.0969331.216055.216075v1.02439c0 .119142-.0969331.216063-.216055.216047z"/><path id="_246861040" d="m1.00934 1.81635c-.012626 0-.025378-.00357087-.0366969-.0110551-.0307165-.0203189-.0391693-.0616654-.0188622-.092374l.610988-.924272c.0123465-.0186732.0332323-.0298976.055622-.0298976.022378-.00001181.0432638.0112362.0556102.0299055l.328551.496992.2325-.35172c.0123425-.0186732.0332283-.0298858.0556181-.0298976.0223819-.00000787.0432638.0112362.0556102.0299016l.514957.77898c.020315.0307047.0118622.0720748-.0188583.0923819-.0307205.0202913-.0720709.0118622-.092378-.0188504l-.459327-.694858-.2325.351717c-.0123504.0186732-.0332402.0299055-.0556299.0299055-.0223701 0-.0432638-.0112323-.0556102-.0299016l-.328539-.496988-.555374.840126c-.0128228.0193898-.0340472.0299213-.0556811.0299055z"/><path id="_246860968" d="m3.98982.493154c-.0456102 0-.0827244.0371181-.0827244.0827441l.00000787 1.02439c0 .0456102.0371024.0827283.0827165.0827283l1.85674-.00000787c.045622 0 .0826929-.0371024.0826929-.0827126v-1.02441c0-.045626-.0370709-.0827244-.0826929-.0827244l-1.85674-.00000787zm1.85674 1.32319h-1.85674c-.119126 0-.216059-.0969016-.216059-.216039l.00000394-1.02441c0-.119142.0969291-.216059.216055-.216059l1.85674-.00000394c.119083 0 .216028.0969331.216028.216075l.00000394 1.02439c0 .119142-.0969528.216063-.216031.216047z"/><path id="_246860896" d="m4.44767 1.0875c-.0339055 0-.0629094-.0257244-.0662835-.0601693-.0120512-.123346-.0700984-.187528-.188181-.208165-.0362598-.00635433-.0605276-.0408898-.0541811-.0771535.00633465-.0362795.0409173-.0605157.0771535-.0541969.177031.0309331.280043.143862.297917.326528.00358268.0366417-.0232244.0692638-.0598622.0728504-.00220079.0002126-.00440157.0003189-.00656299.00030709z"/><path id="_246860824" d="m4.44782 1.0875c-.00216535 0-.0043622-.00008661-.00657087-.00030709-.0366378-.00359843-.0634449-.0361969-.0598622-.0728504.0178622-.182669.120874-.295583.297917-.326528.0362992-.00637795.0708189.0179173.0771535.0541969.00634646.036252-.0179173.0708031-.0541969.0771535-.118083.0206299-.17611.0848307-.188165.208165-.00337008.0344331-.032374.0601811-.0662756.0601693z"/><path id="_246860752" d="m5.38857 1.0875c-.0339016 0-.0629055-.0257244-.0662835-.0601693-.0120472-.123346-.0700945-.187528-.188165-.208165-.0362717-.00635433-.0605394-.0408898-.0541929-.0771535.00633465-.0362795.0408898-.0605157.0771535-.0541969.177028.0309331.280039.143862.297913.326528.00359055.0366417-.0232205.0692638-.0598583.0728504-.00220866.0002126-.00440551.0003189-.00656693.00030709z"/><path id="_246860680" d="m5.38874 1.0875c-.00217717 0-.00435827-.00008661-.00658268-.00030709-.0366339-.00359843-.0634291-.0361969-.0598622-.0728504.0178661-.182669.12089-.295583.297933-.326528.0362795-.00637795.0708031.0179173.0771496.0541969.00633858.036252-.0179291.0708031-.0541929.0771535-.118075.0206299-.176122.0848307-.188181.208165-.00337402.0344331-.032374.0601811-.0662638.0601693z"/><path id="_246860632" d="m5.7265 1.44343c-.0546811 0-.105098-.015122-.153862-.0297441-.041374-.0124134-.0804449-.024126-.115571-.024126-.035122-.00000394-.0741969.0117205-.115571.024126-.0487638.0146181-.0991772.029748-.153858.029748-.0546929-.00000394-.105126-.015126-.15389-.029748-.0413583-.0124134-.0804291-.024126-.115555-.024126-.035122-.00000394-.0741969.0117205-.115571.024126-.048748.0146181-.0991811.029748-.153862.029748-.054689-.00000394-.105122-.015126-.153874-.029748-.0413701-.0124134-.0804567-.024126-.115583-.024126-.0351102-.00000394-.0741929.0117205-.115555.024126-.0487638.0146181-.0991969.029748-.153878.029748-.0546929-.00000394-.10511-.015126-.153874-.029748-.0413583-.0124134-.0804409-.024126-.115555-.024126-.0368189-.00000394-.0666811-.0298504-.0666811-.0666654.00000394-.0368228.0298622-.0666693.0666811-.0666693.0546811-.00001575.10511.015126.153874.029752.0413622.0123898.0804331.024126.115555.024126.0351299 0 .0741969-.0117244.115571-.024126.048752-.0146417.0991811-.029752.153862-.029752.0546969-.00001575.105126.015126.153874.029752.041378.0123898.0804606.024126.115583.024126.0351299 0 .0741969-.0117244.115555-.024126.0487717-.0146417.0991811-.029752.153878-.029752.0546969-.00001575.10511.015126.153874.029752.0413622.0123898.0804449.024126.115571.024126.0351102 0 .0741811-.0117244.115555-.024126.0487677-.0146417.0991772-.029752.153874-.029752.0546969-.00001575.10511.015126.153874.029752.041378.0123898.0804449.024126.115555.024126.035126 0 .0742087-.0117244.115587-.024126.048752-.0146417.0991102-.029752.153831-.029752.036811-.00001575.0666693.0298465.0666693.0666693.00000394.036815-.0298622.0666654-.0666693.0666654-.0351339-.00000394-.0741654.0117205-.115539.024126-.048752.0146181-.0991811.029748-.153874.0297441z"/></g></g></svg>